<svg id="svg" version="1.1" xmlns="http://www.w3.org/2000/svg" xmlns:xlink="http://www.w3.org/1999/xlink" width="400" height="400" viewBox="0, 0, 400,400"><g id="svgg"><path id="path0" d="M110.617 208.241 C 110.747 209.514,111.043 211.806,111.275 213.333 L 111.698 216.111 135.942 216.219 C 158.613 216.320,160.245 216.370,161.111 216.994 C 163.091 218.422,163.178 221.583,161.282 223.241 L 160.329 224.074 136.845 224.074 L 113.362 224.074 114.833 228.342 C 117.557 236.241,121.286 243.787,125.444 249.815 L 127.232 252.407 158.709 252.593 C 183.035 252.736,190.370 252.884,191.000 253.244 C 193.277 254.547,193.694 257.679,191.828 259.468 L 190.692 260.556 162.373 260.741 L 134.054 260.926 136.564 263.376 C 137.944 264.723,140.469 267.015,142.174 268.468 L 145.274 271.111 183.175 271.111 C 209.638 271.111,221.342 271.232,221.958 271.513 C 224.652 272.740,224.652 277.260,221.958 278.487 C 221.347 278.765,211.332 278.894,189.334 278.907 L 157.593 278.925 160.185 280.255 C 183.827 292.383,214.377 292.567,238.991 280.731 L 242.778 278.911 239.947 278.900 C 235.588 278.883,233.698 276.560,235.257 273.138 C 236.106 271.276,237.001 271.111,246.259 271.111 L 254.776 271.111 257.110 269.183 C 262.166 265.008,266.232 260.696,265.000 260.817 C 264.205 260.895,263.904 261.111,263.940 261.574 C 263.972 261.974,263.732 262.222,263.314 262.222 C 262.423 262.222,261.989 261.486,262.638 261.075 C 262.931 260.889,251.946 260.750,236.783 260.746 C 220.567 260.743,210.053 260.602,209.469 260.380 C 207.429 259.604,206.510 256.748,207.669 254.785 C 209.016 252.506,207.664 252.593,241.759 252.593 L 272.851 252.593 274.890 249.537 C 277.697 245.329,279.305 242.595,278.978 242.582 C 278.827 242.576,274.085 242.580,268.439 242.592 C 257.490 242.615,256.545 242.486,255.000 240.753 C 253.748 239.348,254.030 236.777,255.579 235.484 L 256.824 234.444 270.004 234.444 L 283.185 234.444 284.803 229.722 C 285.693 227.125,286.494 224.792,286.583 224.537 C 286.713 224.168,275.509 224.074,231.364 224.074 L 175.983 224.074 174.856 223.126 C 172.809 221.403,173.121 217.759,175.406 216.718 C 176.085 216.409,191.253 216.296,232.371 216.296 L 288.410 216.296 288.824 213.788 C 289.052 212.409,289.350 210.075,289.487 208.603 L 289.736 205.926 200.059 205.926 L 110.382 205.926 110.617 208.241 M287.407 207.059 C 287.407 207.275,287.561 207.356,287.749 207.240 C 287.945 207.119,288.063 207.976,288.026 209.255 C 287.992 210.480,287.823 211.481,287.651 211.481 C 287.480 211.481,287.396 210.606,287.466 209.537 L 287.593 207.593 286.389 207.477 L 285.185 207.360 285.185 210.347 C 285.185 212.091,285.031 213.333,284.815 213.333 C 284.599 213.333,284.444 212.099,284.444 210.370 L 284.444 207.407 198.519 207.407 L 112.593 207.407 112.534 208.426 C 112.502 208.986,112.502 209.778,112.535 210.185 C 112.584 210.795,112.530 210.828,112.229 210.370 C 112.028 210.065,111.861 209.106,111.858 208.241 L 111.852 206.667 199.630 206.667 C 261.162 206.667,287.407 206.784,287.407 207.059 M288.148 212.614 C 288.148 213.034,287.981 213.274,287.778 213.148 C 287.574 213.022,287.407 213.096,287.407 213.311 C 287.407 213.527,287.241 213.704,287.037 213.704 C 286.833 213.704,286.667 213.287,286.667 212.778 C 286.667 212.099,286.864 211.852,287.407 211.852 C 287.908 211.852,288.148 212.099,288.148 212.614 M112.593 213.704 C 112.593 213.907,112.954 214.074,113.395 214.074 C 113.836 214.074,114.094 214.177,113.968 214.304 C 113.635 214.637,111.852 214.126,111.852 213.697 C 111.852 213.497,112.019 213.333,112.222 213.333 C 112.426 213.333,112.593 213.500,112.593 213.704 M149.722 214.352 C 143.968 214.409,134.551 214.409,128.796 214.352 C 123.042 214.294,127.750 214.247,139.259 214.247 C 150.769 214.247,155.477 214.294,149.722 214.352 M257.870 214.352 C 243.153 214.405,219.069 214.405,204.352 214.352 C 189.634 214.298,201.676 214.254,231.111 214.254 C 260.546 214.254,272.588 214.298,257.870 214.352 M177.359 215.223 C 176.683 215.651,174.074 215.646,174.074 215.216 C 174.074 214.717,174.677 214.597,176.364 214.758 C 177.393 214.856,177.707 215.002,177.359 215.223 M172.699 217.744 C 172.463 218.123,172.361 218.786,172.474 219.217 C 172.587 219.647,172.520 220.000,172.326 220.000 C 172.132 220.000,171.947 219.333,171.915 218.519 C 171.883 217.692,172.029 217.037,172.247 217.037 C 172.461 217.037,172.519 216.829,172.375 216.574 C 172.174 216.218,172.231 216.221,172.622 216.583 C 173.018 216.952,173.035 217.207,172.699 217.744 M164.444 221.481 C 164.444 223.457,164.362 223.704,163.704 223.704 C 163.128 223.704,162.963 223.457,162.963 222.593 C 162.963 221.981,163.130 221.481,163.333 221.481 C 163.537 221.481,163.704 220.981,163.704 220.370 C 163.704 219.759,163.870 219.259,164.074 219.259 C 164.280 219.259,164.444 220.247,164.444 221.481 M172.804 222.751 C 173.422 223.369,173.509 224.444,172.941 224.444 C 172.725 224.444,172.669 224.249,172.817 224.011 C 172.997 223.720,172.883 223.655,172.468 223.814 C 171.996 223.996,171.852 223.837,171.852 223.137 C 171.852 222.088,172.058 222.005,172.804 222.751 M162.609 224.946 C 162.063 225.493,161.422 224.848,161.948 224.281 C 162.280 223.923,162.480 223.902,162.670 224.205 C 162.814 224.435,162.787 224.769,162.609 224.946 M118.148 224.815 C 118.555 225.078,118.282 225.175,117.130 225.180 C 116.264 225.183,115.556 225.019,115.556 224.815 C 115.556 224.342,117.417 224.342,118.148 224.815 M285.185 225.948 C 285.185 226.367,285.019 226.607,284.815 226.481 C 284.611 226.356,284.444 226.012,284.444 225.719 C 284.444 225.425,284.611 225.185,284.815 225.185 C 285.019 225.185,285.185 225.528,285.185 225.948 M118.148 228.519 C 118.597 228.809,118.544 228.879,117.870 228.883 C 117.412 228.886,117.037 228.722,117.037 228.519 C 117.037 228.054,117.430 228.054,118.148 228.519 M118.446 232.222 C 118.399 232.833,118.222 233.333,118.053 233.333 C 117.884 233.333,117.772 233.125,117.805 232.870 C 117.933 231.889,117.761 231.448,117.350 231.702 C 117.085 231.866,117.023 231.804,117.187 231.539 C 117.736 230.650,118.533 231.082,118.446 232.222 M279.472 231.641 C 279.932 232.101,279.904 232.203,279.260 232.407 C 278.852 232.537,278.519 232.798,278.519 232.988 C 278.519 233.193,274.457 233.333,268.519 233.333 C 262.099 233.333,258.519 233.201,258.519 232.963 C 258.519 232.759,259.060 232.590,259.722 232.587 C 260.636 232.583,260.792 232.495,260.370 232.222 C 260.004 231.985,262.992 231.861,269.167 231.858 C 275.151 231.854,278.519 231.718,278.519 231.481 C 278.519 230.964,278.850 231.020,279.472 231.641 M234.074 232.222 C 234.074 232.426,234.741 232.593,235.556 232.593 C 236.370 232.593,237.037 232.759,237.037 232.963 C 237.037 233.208,219.630 233.333,185.556 233.333 C 157.241 233.333,134.074 233.243,134.074 233.133 C 134.074 231.872,133.732 231.880,184.537 231.866 C 217.324 231.857,234.074 231.977,234.074 232.222 M282.376 232.725 C 282.080 233.497,281.481 233.518,281.481 232.756 C 281.481 232.438,281.648 232.282,281.852 232.407 C 282.056 232.533,282.222 232.432,282.222 232.182 C 282.222 231.933,282.309 231.816,282.416 231.922 C 282.523 232.029,282.505 232.390,282.376 232.725 M238.406 235.169 C 241.057 236.785,240.709 240.459,237.765 241.944 C 235.988 242.840,134.559 242.960,132.424 242.068 C 129.663 240.914,128.939 237.389,131.071 235.483 L 132.234 234.444 184.728 234.446 C 236.106 234.447,237.247 234.463,238.406 235.169 M128.007 237.752 C 127.977 238.349,127.864 238.926,127.755 239.035 C 127.589 239.201,127.573 237.860,127.730 236.944 C 127.856 236.211,128.055 236.792,128.007 237.752 M242.110 238.362 C 242.180 239.415,242.174 239.419,241.869 238.519 C 241.567 237.627,241.554 237.623,241.518 238.426 C 241.469 239.533,240.741 239.504,240.741 238.395 C 240.741 236.650,241.993 236.620,242.110 238.362 M252.593 238.417 C 252.593 238.948,252.468 239.258,252.315 239.105 C 251.941 238.731,251.925 237.039,252.298 237.269 C 252.460 237.369,252.593 237.886,252.593 238.417 M122.460 239.074 C 122.954 239.568,122.954 239.691,122.460 240.185 C 121.613 241.032,120.741 240.876,120.741 239.877 C 120.741 238.448,121.486 238.100,122.460 239.074 M253.219 242.381 C 253.154 242.574,252.881 242.805,252.610 242.895 C 252.333 242.988,252.225 242.888,252.362 242.666 C 252.495 242.450,252.435 242.169,252.228 242.041 C 252.021 241.913,251.852 241.650,251.852 241.456 C 251.852 241.263,252.186 241.313,252.594 241.568 C 253.001 241.823,253.283 242.189,253.219 242.381 M128.889 242.396 C 128.889 242.726,128.672 242.856,128.335 242.727 C 128.031 242.611,127.874 242.366,127.987 242.183 C 128.310 241.660,128.889 241.797,128.889 242.396 M125.185 242.593 C 125.185 242.796,124.852 242.963,124.444 242.963 C 123.596 242.963,123.499 243.340,124.167 244.044 C 124.549 244.447,124.492 244.448,123.834 244.052 C 123.179 243.658,123.113 243.453,123.460 242.897 C 123.904 242.186,125.185 241.960,125.185 242.593 M273.333 243.704 C 273.333 244.111,273.167 244.444,272.963 244.444 C 272.759 244.444,272.593 244.111,272.593 243.704 C 272.593 243.296,272.759 242.963,272.963 242.963 C 273.167 242.963,273.333 243.296,273.333 243.704 M276.963 244.083 C 276.909 244.796,276.712 245.140,276.421 245.028 C 276.126 244.915,276.045 245.065,276.193 245.450 C 276.346 245.848,276.277 245.958,275.989 245.780 C 275.751 245.632,275.556 245.700,275.556 245.931 C 275.556 246.539,274.455 247.545,274.149 247.216 C 274.006 247.062,274.097 246.861,274.352 246.770 C 274.606 246.679,274.815 246.285,274.815 245.895 C 274.815 245.505,274.981 245.185,275.185 245.185 C 275.389 245.185,275.556 244.685,275.556 244.074 C 275.556 243.207,275.720 242.963,276.302 242.963 C 276.905 242.963,277.032 243.179,276.963 244.083 M274.074 248.519 C 274.074 248.722,273.898 248.889,273.682 248.889 C 273.466 248.889,273.409 249.081,273.554 249.316 C 273.714 249.575,273.656 249.644,273.407 249.490 C 273.180 249.350,273.089 248.991,273.204 248.692 C 273.439 248.078,274.074 247.952,274.074 248.519 M127.407 249.612 C 127.407 249.782,127.176 250.009,126.894 250.118 C 126.534 250.256,126.436 250.102,126.566 249.606 C 126.740 248.939,127.407 248.943,127.407 249.612 M189.630 250.000 C 189.630 251.086,189.588 251.111,187.778 251.111 C 186.759 251.111,185.926 250.944,185.926 250.741 C 185.926 250.537,186.426 250.370,187.037 250.370 C 187.901 250.370,188.148 250.206,188.148 249.630 C 188.148 249.136,188.395 248.889,188.889 248.889 C 189.465 248.889,189.630 249.136,189.630 250.000 M195.556 249.259 C 195.556 249.463,195.222 249.630,194.815 249.630 C 194.407 249.630,194.074 249.463,194.074 249.259 C 194.074 249.056,194.407 248.889,194.815 248.889 C 195.222 248.889,195.556 249.056,195.556 249.259 M183.704 250.000 C 183.704 250.243,174.568 250.370,157.037 250.370 C 139.506 250.370,130.370 250.243,130.370 250.000 C 130.370 249.757,139.506 249.630,157.037 249.630 C 174.568 249.630,183.704 249.757,183.704 250.000 M273.209 250.210 C 273.331 250.529,273.220 250.988,272.962 251.229 C 272.591 251.575,272.529 251.511,272.669 250.926 C 272.844 250.189,272.682 250.186,243.089 250.282 C 223.205 250.347,213.333 250.255,213.333 250.004 C 213.333 249.301,272.939 249.506,273.209 250.210 M209.630 250.572 C 209.630 250.980,207.849 252.541,207.632 252.323 C 206.897 251.588,207.450 250.370,208.519 250.370 C 209.130 250.370,209.630 250.461,209.630 250.572 M194.358 252.593 C 194.788 253.280,194.728 253.333,193.544 253.333 C 192.154 253.333,191.452 252.703,192.267 252.186 C 193.103 251.657,193.867 251.805,194.358 252.593 M195.556 256.255 C 195.556 257.499,195.536 257.516,194.894 256.840 C 194.530 256.457,194.233 255.858,194.233 255.508 C 194.233 255.127,194.497 254.893,194.894 254.923 C 195.392 254.960,195.556 255.289,195.556 256.255 M194.590 259.845 C 194.887 260.619,194.913 260.576,194.116 260.636 C 193.597 260.675,193.465 260.504,193.603 259.974 C 193.830 259.108,194.284 259.049,194.590 259.845 M142.222 261.667 C 142.222 262.294,142.157 262.316,141.296 261.985 C 140.803 261.797,140.779 261.685,141.173 261.436 C 141.903 260.973,142.222 261.043,142.222 261.667 M261.347 263.333 C 261.347 263.944,261.210 264.444,261.044 264.444 C 260.877 264.444,260.741 263.944,260.741 263.333 C 260.741 262.722,260.877 262.222,261.044 262.222 C 261.210 262.222,261.347 262.722,261.347 263.333 M140.671 263.607 C 140.485 264.572,139.259 264.680,139.259 263.731 C 139.259 263.201,139.497 262.963,140.027 262.963 C 140.557 262.963,140.757 263.162,140.671 263.607 M142.123 265.278 C 142.074 266.584,142.250 267.065,142.685 266.814 C 142.940 266.668,143.018 266.691,142.860 266.865 C 142.005 267.804,140.979 266.298,141.690 265.148 C 141.977 264.683,142.143 264.733,142.123 265.278 M148.148 267.037 C 148.148 267.241,147.815 267.407,147.407 267.407 C 147.000 267.407,146.667 267.241,146.667 267.037 C 146.667 266.833,147.000 266.667,147.407 266.667 C 147.815 266.667,148.148 266.833,148.148 267.037 M258.519 267.101 C 258.519 267.313,258.262 267.388,257.949 267.268 C 257.625 267.144,257.289 267.286,257.169 267.599 C 256.870 268.377,256.332 268.281,256.394 267.462 C 256.450 266.721,258.519 266.370,258.519 267.101 M145.244 268.297 C 145.550 268.108,146.667 268.987,146.667 269.418 C 146.667 269.534,146.415 269.630,146.108 269.630 C 145.490 269.630,143.333 267.843,143.333 267.332 C 143.333 267.154,143.692 267.342,144.130 267.751 C 144.568 268.159,145.070 268.405,145.244 268.297 M255.801 267.569 C 255.689 267.861,255.796 268.175,256.039 268.267 C 256.328 268.376,256.224 268.632,255.741 269.007 C 254.824 269.716,254.420 268.562,255.253 267.617 C 255.876 266.912,256.059 266.896,255.801 267.569 M225.103 270.592 C 225.173 271.429,225.158 271.432,224.071 270.813 C 222.698 270.032,222.684 269.824,223.999 269.779 C 224.821 269.751,225.047 269.917,225.103 270.592 M201.574 270.278 C 191.745 270.333,175.662 270.333,165.833 270.278 C 156.005 270.223,164.046 270.178,183.704 270.178 C 203.361 270.178,211.403 270.223,201.574 270.278 M246.775 270.274 C 245.510 270.346,243.343 270.346,241.960 270.275 C 240.576 270.204,241.611 270.145,244.259 270.144 C 246.907 270.143,248.039 270.202,246.775 270.274 M225.180 277.293 C 225.190 278.787,224.616 278.477,224.576 276.967 C 224.551 276.006,224.650 275.655,224.856 275.979 C 225.031 276.255,225.176 276.847,225.180 277.293 M232.804 276.085 C 233.095 276.376,233.333 276.876,233.333 277.196 C 233.333 277.516,233.500 277.778,233.704 277.778 C 233.907 277.778,234.074 277.944,234.074 278.148 C 234.074 278.352,233.741 278.519,233.333 278.519 C 232.926 278.519,232.593 278.685,232.593 278.889 C 232.593 279.093,232.259 279.259,231.852 279.259 C 231.444 279.259,231.111 279.093,231.111 278.889 C 231.111 278.685,231.278 278.519,231.481 278.519 C 231.685 278.519,231.852 278.185,231.852 277.778 C 231.852 277.370,231.685 277.037,231.481 277.037 C 231.278 277.037,231.111 276.704,231.111 276.296 C 231.111 275.429,232.033 275.314,232.804 276.085 M171.852 280.370 C 171.852 280.586,173.086 280.741,174.815 280.741 C 176.543 280.741,177.778 280.586,177.778 280.370 C 177.778 279.890,183.600 279.878,183.765 280.358 C 183.842 280.581,190.930 280.756,202.465 280.821 C 212.682 280.879,220.849 280.785,220.613 280.613 C 220.350 280.421,220.446 280.385,220.864 280.521 C 221.237 280.642,221.737 280.743,221.975 280.746 C 222.253 280.750,222.228 280.866,221.906 281.070 C 221.145 281.552,183.704 281.612,183.704 281.131 C 183.704 280.890,182.569 280.741,180.741 280.741 C 179.012 280.741,177.778 280.895,177.778 281.111 C 177.778 281.327,176.543 281.481,174.815 281.481 C 173.185 281.481,171.852 281.338,171.852 281.163 C 171.852 280.988,170.810 280.677,169.537 280.474 L 167.222 280.103 169.537 280.052 C 170.868 280.022,171.852 280.157,171.852 280.370 M225.185 280.370 C 225.185 280.574,224.852 280.741,224.444 280.741 C 224.037 280.741,223.704 280.574,223.704 280.370 C 223.704 280.167,224.037 280.000,224.444 280.000 C 224.852 280.000,225.185 280.167,225.185 280.370 M234.815 280.681 C 234.815 281.432,233.142 282.377,232.508 281.985 C 232.288 281.849,232.212 281.905,232.339 282.111 C 232.466 282.316,232.200 282.653,231.748 282.859 C 231.025 283.188,230.926 283.127,230.926 282.357 C 230.926 281.696,231.130 281.481,231.759 281.481 C 232.218 281.481,232.593 281.315,232.593 281.111 C 232.593 280.907,232.926 280.741,233.333 280.741 C 233.741 280.741,234.074 280.574,234.074 280.370 C 234.074 280.167,234.241 280.000,234.444 280.000 C 234.648 280.000,234.815 280.307,234.815 280.681 M165.926 281.111 C 165.926 281.315,165.426 281.481,164.815 281.481 C 164.204 281.481,163.704 281.315,163.704 281.111 C 163.704 280.907,164.204 280.741,164.815 280.741 C 165.426 280.741,165.926 280.907,165.926 281.111 M170.000 282.823 C 170.000 283.289,170.113 283.330,170.506 283.004 C 170.887 282.688,171.109 282.699,171.401 283.051 C 171.701 283.413,171.482 283.519,170.431 283.519 C 169.672 283.519,169.105 283.344,169.144 283.123 C 169.185 282.893,168.721 282.773,168.033 282.836 C 166.944 282.936,166.924 282.919,167.778 282.620 C 169.253 282.104,170.000 282.172,170.000 282.823 M183.704 282.963 C 183.704 283.642,183.457 283.704,180.741 283.704 C 178.025 283.704,177.778 283.642,177.778 282.963 C 177.778 282.284,178.025 282.222,180.741 282.222 C 183.457 282.222,183.704 282.284,183.704 282.963 M225.095 284.159 C 224.871 284.832,222.073 285.562,221.441 285.112 C 221.014 284.808,221.021 284.774,221.481 284.914 C 221.787 285.007,222.370 284.951,222.778 284.790 C 223.406 284.541,223.420 284.493,222.870 284.470 C 221.499 284.415,222.301 283.704,223.735 283.704 C 224.765 283.704,225.199 283.849,225.095 284.159 M177.778 284.829 C 177.778 284.989,178.486 285.241,179.352 285.389 C 180.604 285.604,180.774 285.715,180.185 285.934 C 179.543 286.172,179.592 286.232,180.556 286.382 L 181.667 286.556 180.485 286.611 C 179.835 286.642,179.193 286.489,179.058 286.271 C 178.924 286.053,178.581 285.965,178.296 286.074 C 177.997 286.189,177.778 286.043,177.778 285.729 C 177.778 285.430,177.454 285.185,177.059 285.185 C 176.664 285.185,176.250 285.039,176.140 284.861 C 176.030 284.683,176.353 284.537,176.859 284.537 C 177.364 284.537,177.778 284.668,177.778 284.829 M194.074 284.815 C 194.074 285.037,192.593 285.185,190.370 285.185 C 188.148 285.185,186.667 285.037,186.667 284.815 C 186.667 284.593,188.148 284.444,190.370 284.444 C 192.593 284.444,194.074 284.593,194.074 284.815 M215.556 284.815 C 215.556 285.026,214.444 285.185,212.963 285.185 C 211.481 285.185,210.370 285.026,210.370 284.815 C 210.370 284.603,211.481 284.444,212.963 284.444 C 214.444 284.444,215.556 284.603,215.556 284.815 M207.407 285.926 C 207.407 286.543,207.160 286.667,205.926 286.667 C 205.111 286.667,204.444 286.500,204.444 286.296 C 204.444 286.070,202.716 285.926,200.000 285.926 C 197.284 285.926,195.556 285.782,195.556 285.556 C 195.556 285.324,197.778 285.185,201.481 285.185 C 207.160 285.185,207.407 285.216,207.407 285.926 M220.710 286.534 C 221.082 286.854,219.389 286.618,218.889 286.279 C 218.483 286.005,218.633 285.970,219.444 286.152 C 220.056 286.289,220.625 286.460,220.710 286.534 M183.704 287.037 C 183.704 287.241,183.370 287.407,182.963 287.407 C 182.556 287.407,182.222 287.241,182.222 287.037 C 182.222 286.833,182.556 286.667,182.963 286.667 C 183.370 286.667,183.704 286.833,183.704 287.037 M215.556 287.037 C 215.556 287.241,215.153 287.407,214.660 287.407 C 214.167 287.407,213.464 287.522,213.098 287.663 C 212.503 287.891,212.490 287.853,212.975 287.307 C 213.565 286.643,215.556 286.434,215.556 287.037 M218.148 287.037 C 218.148 287.241,217.898 287.407,217.593 287.407 C 217.287 287.407,217.037 287.241,217.037 287.037 C 217.037 286.833,217.287 286.667,217.593 286.667 C 217.898 286.667,218.148 286.833,218.148 287.037 M195.556 287.777 C 195.556 288.005,197.306 288.149,200.093 288.150 C 202.588 288.151,205.296 288.299,206.111 288.478 C 207.199 288.717,205.995 288.815,201.574 288.846 C 197.780 288.873,195.556 288.752,195.556 288.519 C 195.556 288.315,194.681 288.132,193.611 288.111 C 190.242 288.047,189.502 287.531,192.685 287.465 C 194.398 287.429,195.556 287.555,195.556 287.777 M209.444 287.774 C 208.507 288.182,207.407 288.233,207.408 287.870 C 207.409 287.718,208.034 287.561,208.797 287.522 C 209.868 287.468,210.016 287.526,209.444 287.774 " stroke="none" fill="#061c5f" fill-rule="evenodd"></path><path id="path1" d="M193.333 110.770 C 193.984 110.999,193.517 111.056,191.764 110.962 C 190.098 110.872,189.348 110.955,189.507 111.212 C 189.666 111.470,189.144 111.525,187.928 111.378 C 186.762 111.237,186.377 111.273,186.852 111.479 C 187.565 111.788,184.702 112.062,182.830 111.864 C 182.419 111.821,182.241 111.953,182.389 112.192 C 182.637 112.593,181.522 112.787,179.630 112.672 C 178.911 112.628,178.828 112.695,179.259 112.969 C 179.830 113.332,178.728 113.531,176.751 113.423 C 176.288 113.398,176.006 113.534,176.125 113.725 C 176.243 113.917,176.011 114.074,175.608 114.074 C 175.206 114.074,174.821 114.232,174.753 114.425 C 174.685 114.617,173.838 114.815,172.870 114.864 C 171.903 114.913,171.111 115.089,171.111 115.254 C 171.111 115.420,170.722 115.556,170.247 115.556 C 169.772 115.556,169.258 115.681,169.105 115.833 C 168.826 116.113,168.634 116.165,167.571 116.250 C 167.253 116.275,167.096 116.463,167.222 116.667 C 167.348 116.870,167.108 117.037,166.689 117.037 C 166.269 117.037,165.926 117.204,165.926 117.407 C 165.926 117.611,165.602 117.778,165.207 117.778 C 164.812 117.778,164.385 117.944,164.259 118.148 C 164.133 118.352,163.512 118.519,162.879 118.519 C 162.246 118.519,161.832 118.622,161.958 118.748 C 162.333 119.124,161.226 120.000,160.375 120.000 C 159.842 120.000,159.676 120.150,159.864 120.463 C 160.038 120.752,159.873 120.722,159.423 120.383 C 159.027 120.084,158.821 119.979,158.964 120.149 C 159.261 120.502,158.405 121.481,157.799 121.481 C 157.303 121.481,155.826 122.289,155.500 122.739 C 155.368 122.922,154.993 122.969,154.667 122.843 C 154.310 122.706,154.074 122.808,154.074 123.100 C 154.074 123.609,152.567 124.444,151.649 124.444 C 151.353 124.444,151.111 124.600,151.111 124.790 C 151.111 124.979,150.581 125.512,149.933 125.974 C 149.243 126.465,148.871 126.591,149.034 126.277 C 149.187 125.982,148.911 126.210,148.420 126.783 C 147.928 127.357,147.245 127.867,146.901 127.918 C 146.557 127.968,146.322 128.117,146.379 128.248 C 146.540 128.622,145.047 129.588,144.669 129.354 C 144.483 129.239,144.456 129.348,144.610 129.597 C 144.788 129.885,144.606 130.124,144.111 130.253 C 143.683 130.365,143.333 130.604,143.333 130.784 C 143.333 130.964,143.133 131.069,142.887 131.019 C 142.476 130.933,142.401 131.086,142.269 132.265 C 142.243 132.493,141.895 132.593,141.495 132.489 C 141.080 132.380,140.563 132.551,140.291 132.887 C 139.891 133.381,139.904 133.428,140.370 133.176 C 140.676 133.011,140.167 133.616,139.240 134.519 C 138.312 135.422,137.271 136.270,136.925 136.402 C 136.579 136.535,136.296 136.823,136.296 137.042 C 136.296 137.641,134.566 139.253,134.239 138.959 C 134.083 138.819,134.061 138.890,134.191 139.117 C 134.321 139.345,134.069 139.845,133.631 140.228 C 133.111 140.684,132.941 140.734,133.139 140.370 C 133.391 139.909,133.354 139.897,132.925 140.296 C 132.640 140.561,132.387 140.936,132.361 141.130 C 132.336 141.323,132.294 141.648,132.269 141.852 C 132.243 142.056,131.972 142.222,131.667 142.222 C 131.339 142.222,131.109 142.564,131.105 143.056 C 131.101 143.689,131.020 143.764,130.769 143.366 C 130.514 142.963,130.407 143.049,130.303 143.736 C 130.228 144.228,129.951 144.584,129.686 144.528 C 129.421 144.472,129.285 144.557,129.384 144.717 C 129.598 145.064,128.851 146.165,128.357 146.230 C 128.166 146.255,127.967 146.568,127.914 146.924 C 127.862 147.281,127.560 147.762,127.243 147.994 C 126.926 148.225,126.667 148.615,126.667 148.859 C 126.667 149.103,126.500 149.200,126.296 149.074 C 126.093 148.948,125.926 149.198,125.926 149.630 C 125.926 150.159,125.775 150.324,125.463 150.136 C 125.173 149.962,125.204 150.127,125.543 150.577 C 125.842 150.973,125.945 151.177,125.772 151.032 C 125.231 150.576,124.079 151.435,124.336 152.103 C 124.493 152.513,124.428 152.626,124.137 152.446 C 123.858 152.274,123.704 152.458,123.704 152.963 C 123.704 153.404,123.538 153.645,123.324 153.513 C 123.115 153.384,122.982 153.416,123.027 153.584 C 123.186 154.171,122.536 155.564,122.200 155.357 C 122.013 155.241,121.970 155.432,122.104 155.782 C 122.283 156.248,122.217 156.337,121.858 156.115 C 121.575 155.940,121.457 155.956,121.578 156.153 C 121.855 156.600,120.583 159.349,120.253 159.018 C 120.114 158.879,120.000 159.220,120.000 159.775 C 120.000 160.444,119.856 160.695,119.572 160.520 C 119.320 160.364,119.245 160.418,119.388 160.650 C 119.710 161.171,119.274 162.275,118.850 162.013 C 118.668 161.900,118.519 162.231,118.519 162.747 C 118.519 163.263,118.186 164.231,117.779 164.898 C 117.373 165.565,117.039 166.403,117.038 166.759 C 117.038 167.116,116.870 167.407,116.667 167.407 C 116.463 167.407,116.296 167.741,116.296 168.148 C 116.296 168.556,116.130 168.889,115.926 168.889 C 115.722 168.889,115.556 169.399,115.556 170.022 C 115.556 170.683,115.401 171.059,115.185 170.926 C 114.821 170.701,114.645 171.413,114.752 172.685 C 114.782 173.042,114.641 173.333,114.440 173.333 C 114.239 173.333,114.094 173.458,114.118 173.611 C 114.303 174.781,113.985 177.074,113.581 177.477 C 113.310 177.748,113.165 178.200,113.259 178.481 C 113.362 178.790,113.264 178.890,113.011 178.733 C 112.579 178.467,112.450 179.232,112.586 181.246 C 112.632 181.928,112.514 182.217,112.255 182.057 C 111.848 181.806,111.656 182.998,111.817 184.779 C 111.861 185.268,111.714 185.782,111.489 185.921 C 111.240 186.075,111.079 187.523,111.076 189.650 C 111.072 191.937,110.953 192.940,110.726 192.581 C 110.468 192.173,110.380 192.159,110.376 192.526 C 110.358 194.096,109.921 194.074,140.731 194.074 L 170.034 194.074 170.884 193.224 C 171.351 192.757,171.848 191.917,171.989 191.357 C 172.129 190.798,172.404 190.439,172.599 190.560 C 172.804 190.686,172.851 190.511,172.711 190.144 C 172.539 189.697,172.603 189.592,172.925 189.791 C 173.208 189.967,173.357 189.884,173.314 189.574 C 173.175 188.560,173.347 188.148,173.911 188.148 C 174.228 188.148,174.385 187.982,174.260 187.778 C 173.982 187.330,174.966 185.830,175.311 186.175 C 175.446 186.310,175.556 186.162,175.556 185.848 C 175.556 185.533,175.796 185.077,176.089 184.833 C 176.383 184.590,176.521 184.125,176.397 183.801 C 176.247 183.410,176.316 183.302,176.604 183.480 C 176.882 183.652,177.037 183.468,177.037 182.963 C 177.037 182.522,177.203 182.281,177.417 182.413 C 177.625 182.542,177.772 182.510,177.743 182.342 C 177.597 181.502,177.820 180.723,178.148 180.926 C 178.352 181.052,178.524 180.853,178.530 180.485 C 178.546 179.616,179.432 178.450,179.810 178.802 C 179.970 178.952,180.022 178.824,179.926 178.519 C 179.829 178.213,180.014 177.742,180.338 177.473 C 180.661 177.203,180.705 177.095,180.436 177.234 C 179.930 177.493,180.585 176.000,181.174 175.552 C 181.310 175.448,181.477 175.121,181.544 174.826 C 181.697 174.154,182.341 173.371,182.608 173.532 C 182.719 173.598,182.836 173.291,182.870 172.850 C 182.903 172.409,183.104 171.990,183.317 171.919 C 183.530 171.848,183.704 171.453,183.704 171.041 C 183.704 170.538,183.881 170.359,184.240 170.497 C 184.617 170.642,184.709 170.525,184.548 170.106 C 184.395 169.708,184.463 169.598,184.752 169.776 C 185.040 169.954,185.185 169.725,185.185 169.096 C 185.185 168.553,185.376 168.188,185.631 168.241 C 185.876 168.292,186.094 168.083,186.115 167.778 C 186.179 166.849,186.724 165.918,187.076 166.135 C 187.403 166.337,187.554 165.817,187.434 164.902 C 187.400 164.644,187.588 164.477,187.853 164.531 C 188.166 164.595,188.295 164.307,188.224 163.704 C 188.138 162.972,188.195 162.894,188.496 163.333 C 188.753 163.708,188.879 163.738,188.883 163.426 C 188.894 162.524,188.947 162.404,189.455 162.120 C 189.738 161.962,189.886 161.616,189.785 161.352 C 189.683 161.087,190.065 160.396,190.634 159.816 C 191.202 159.236,191.460 158.882,191.208 159.029 C 190.900 159.209,190.820 159.112,190.965 158.735 C 191.084 158.425,191.374 158.208,191.609 158.252 C 191.845 158.297,191.984 158.025,191.920 157.648 C 191.849 157.237,191.960 157.060,192.197 157.207 C 192.439 157.356,192.593 157.074,192.593 156.481 C 192.593 155.929,192.752 155.610,192.963 155.741 C 193.167 155.867,193.333 155.615,193.333 155.181 C 193.333 154.747,193.585 154.140,193.892 153.833 C 194.200 153.525,194.339 153.092,194.202 152.870 C 194.039 152.606,194.184 152.555,194.621 152.723 C 195.212 152.950,195.230 152.906,194.775 152.347 C 194.321 151.789,194.337 151.742,194.907 151.956 C 195.379 152.133,195.556 152.012,195.556 151.512 C 195.556 151.134,195.792 150.369,196.082 149.811 C 196.642 148.731,196.482 147.620,195.824 148.026 C 195.581 148.176,195.516 148.045,195.655 147.681 C 195.801 147.303,195.559 146.882,194.978 146.501 C 194.397 146.120,194.074 145.559,194.074 144.930 C 194.074 144.391,193.971 144.054,193.845 144.180 C 193.462 144.563,192.593 143.441,192.512 142.458 C 192.470 141.950,192.304 141.616,192.144 141.715 C 191.983 141.814,191.852 141.636,191.852 141.318 C 191.852 141.001,191.685 140.741,191.481 140.741 C 191.278 140.741,191.111 140.522,191.111 140.255 C 191.111 139.988,190.780 139.414,190.375 138.980 C 189.892 138.461,189.630 137.643,189.610 136.595 C 189.562 133.971,189.676 133.676,190.832 133.445 C 191.602 133.291,191.770 133.139,191.419 132.916 C 191.063 132.691,191.149 132.602,191.728 132.598 C 192.170 132.595,192.589 132.768,192.661 132.983 C 192.733 133.198,193.038 133.411,193.340 133.457 C 194.289 133.600,194.815 134.092,194.815 134.837 C 194.815 135.232,194.991 135.556,195.207 135.556 C 195.423 135.556,195.496 135.723,195.369 135.929 C 195.242 136.134,195.398 136.401,195.715 136.523 C 196.032 136.645,196.211 136.876,196.111 137.037 C 196.012 137.198,196.179 137.425,196.484 137.542 C 196.788 137.659,197.037 138.093,197.037 138.507 C 197.037 138.921,197.231 139.259,197.469 139.259 C 197.707 139.259,197.791 139.369,197.657 139.504 C 197.522 139.638,197.756 139.989,198.175 140.283 C 198.595 140.577,198.849 141.050,198.740 141.335 C 198.631 141.619,198.703 141.852,198.901 141.852 C 199.098 141.852,199.218 142.035,199.167 142.258 C 199.116 142.481,199.449 142.809,199.907 142.987 C 200.604 143.256,200.741 143.186,200.741 142.559 C 200.741 142.146,200.896 141.904,201.086 142.021 C 201.276 142.139,201.484 141.774,201.549 141.210 C 201.614 140.646,201.869 140.225,202.116 140.273 C 202.375 140.324,202.477 140.129,202.356 139.813 C 202.238 139.508,202.398 139.169,202.716 139.047 C 203.054 138.917,203.195 138.589,203.062 138.242 C 202.913 137.854,202.984 137.747,203.270 137.924 C 203.551 138.097,203.704 137.906,203.704 137.380 C 203.704 136.934,204.048 136.270,204.469 135.905 C 204.890 135.540,205.223 135.145,205.210 135.028 C 205.125 134.290,205.250 134.074,205.763 134.074 C 206.080 134.074,206.237 133.907,206.111 133.704 C 205.985 133.500,206.225 133.333,206.645 133.333 C 207.064 133.333,207.407 133.167,207.407 132.963 C 207.407 132.759,207.751 132.593,208.170 132.593 C 208.589 132.593,208.830 132.759,208.704 132.963 C 208.492 133.306,209.007 133.500,209.764 133.363 C 210.354 133.257,211.087 134.619,211.099 135.846 C 211.112 137.120,210.132 139.014,209.624 138.700 C 209.461 138.600,209.411 138.893,209.511 139.351 C 209.658 140.021,209.616 140.076,209.297 139.630 C 208.950 139.144,208.900 139.150,208.895 139.680 C 208.887 140.525,207.942 142.263,207.649 141.970 C 207.516 141.837,207.407 142.173,207.407 142.716 C 207.407 143.364,207.209 143.704,206.830 143.704 C 206.512 143.704,206.356 143.870,206.481 144.074 C 206.607 144.278,206.506 144.444,206.256 144.444 C 206.007 144.444,205.900 144.542,206.019 144.660 C 206.137 144.779,205.919 145.192,205.533 145.578 C 205.140 145.971,204.929 146.534,205.054 146.859 C 205.196 147.230,205.094 147.399,204.768 147.330 C 204.488 147.271,204.301 147.431,204.352 147.685 C 204.403 147.940,204.273 148.148,204.062 148.148 C 203.852 148.148,203.719 148.721,203.766 149.421 C 203.813 150.120,203.968 150.621,204.109 150.534 C 204.251 150.446,204.466 150.632,204.587 150.947 C 204.731 151.324,204.649 151.440,204.348 151.288 C 204.095 151.161,204.139 151.277,204.444 151.547 C 205.487 152.467,206.199 153.521,205.556 153.191 C 205.250 153.035,205.333 153.219,205.741 153.600 C 206.669 154.468,207.407 155.743,207.407 156.476 C 207.407 156.785,207.640 157.037,207.923 157.037 C 208.490 157.037,208.889 157.815,208.889 158.919 C 208.889 159.310,209.181 159.935,209.537 160.309 C 209.894 160.682,210.239 161.224,210.306 161.512 C 210.372 161.801,210.581 162.093,210.771 162.161 C 210.961 162.230,211.022 162.438,210.906 162.624 C 210.791 162.811,210.957 162.963,211.274 162.963 C 211.647 162.963,211.852 163.299,211.852 163.911 C 211.852 164.448,212.012 164.759,212.222 164.630 C 212.426 164.504,212.593 164.754,212.593 165.185 C 212.593 165.647,212.755 165.869,212.988 165.725 C 213.225 165.579,213.336 165.755,213.266 166.167 C 213.198 166.562,213.344 166.813,213.611 166.759 C 213.866 166.708,214.074 167.000,214.074 167.407 C 214.074 167.815,214.251 168.148,214.466 168.148 C 214.682 168.148,214.762 168.305,214.643 168.496 C 214.525 168.688,214.777 169.170,215.204 169.568 C 215.881 170.199,216.160 170.828,216.268 171.966 C 216.284 172.131,216.445 172.174,216.628 172.061 C 216.810 171.948,217.058 172.114,217.179 172.429 C 217.324 172.805,217.242 172.922,216.940 172.770 C 216.688 172.642,216.773 172.777,217.130 173.069 C 217.486 173.361,217.780 173.915,217.783 174.300 C 217.788 174.888,217.847 174.911,218.148 174.444 C 218.427 174.013,218.508 174.121,218.513 174.929 C 218.516 175.527,218.676 175.872,218.889 175.741 C 219.093 175.615,219.259 175.865,219.259 176.296 C 219.259 176.801,219.414 176.985,219.693 176.813 C 219.984 176.633,220.048 176.747,219.889 177.161 C 219.732 177.571,219.843 177.778,220.220 177.778 C 220.596 177.778,220.748 178.059,220.671 178.611 C 220.600 179.125,220.733 179.409,221.019 179.352 C 221.296 179.296,221.481 179.654,221.481 180.247 C 221.481 180.790,221.594 181.122,221.731 180.985 C 222.047 180.669,223.357 182.625,223.104 183.035 C 223.000 183.202,223.166 183.435,223.472 183.552 C 223.797 183.677,223.934 184.007,223.803 184.351 C 223.641 184.773,223.717 184.851,224.074 184.630 C 224.436 184.406,224.507 184.489,224.336 184.935 C 224.195 185.301,224.272 185.511,224.528 185.459 C 224.764 185.410,225.025 185.687,225.109 186.075 C 225.193 186.462,225.581 187.123,225.973 187.543 C 226.365 187.963,226.604 188.519,226.504 188.778 C 226.405 189.036,226.640 189.417,227.026 189.624 C 227.412 189.830,227.835 190.374,227.967 190.833 C 228.748 193.547,229.947 194.850,230.525 193.611 C 230.698 193.241,230.784 193.241,230.957 193.611 C 231.127 193.975,236.856 194.074,257.778 194.074 C 278.700 194.074,284.429 193.975,284.599 193.611 C 284.772 193.241,284.858 193.241,285.031 193.611 C 285.287 194.160,286.667 194.238,286.667 193.704 C 286.667 193.500,287.000 193.333,287.407 193.333 C 287.815 193.333,288.148 193.500,288.148 193.704 C 288.148 194.613,289.190 193.957,289.398 192.917 C 289.753 191.143,289.650 189.903,289.248 191.111 C 289.028 191.773,288.949 191.319,288.973 189.522 C 288.993 188.064,288.826 186.826,288.577 186.577 C 288.341 186.341,288.148 185.275,288.148 184.207 C 288.148 183.139,287.985 182.165,287.785 182.041 C 287.585 181.918,287.441 180.957,287.465 179.907 C 287.490 178.775,287.336 177.939,287.087 177.856 C 286.856 177.779,286.667 177.430,286.667 177.080 C 286.667 176.731,286.499 176.276,286.293 176.071 C 286.088 175.865,285.879 175.016,285.830 174.183 C 285.781 173.350,285.589 172.760,285.405 172.873 C 285.220 172.986,285.159 172.732,285.270 172.308 C 285.418 171.743,285.330 171.591,284.940 171.741 C 284.526 171.900,284.428 171.623,284.495 170.485 C 284.560 169.390,284.373 168.818,283.749 168.193 C 283.291 167.735,282.945 166.996,282.981 166.551 C 283.092 165.150,282.978 164.762,282.534 165.036 C 282.240 165.218,282.172 165.048,282.316 164.496 C 282.434 164.044,282.305 163.469,282.022 163.186 C 281.744 162.908,281.620 162.578,281.746 162.451 C 281.872 162.325,281.771 162.222,281.521 162.222 C 281.272 162.222,281.170 162.056,281.296 161.852 C 281.422 161.648,281.349 161.481,281.133 161.481 C 280.917 161.481,280.741 161.185,280.741 160.823 C 280.741 160.460,280.411 159.926,280.008 159.636 C 279.470 159.248,279.396 159.031,279.730 158.819 C 280.049 158.616,279.993 158.528,279.544 158.524 C 279.153 158.521,278.809 158.122,278.661 157.500 C 278.528 156.940,278.175 156.200,277.877 155.857 C 277.579 155.513,277.460 155.029,277.614 154.781 C 277.791 154.493,277.737 154.426,277.465 154.594 C 277.225 154.742,277.033 154.645,277.029 154.374 C 277.024 154.107,276.695 153.472,276.296 152.963 C 275.898 152.454,275.568 151.785,275.564 151.477 C 275.559 151.170,275.056 150.505,274.444 150.000 C 273.833 149.495,273.333 148.943,273.333 148.774 C 273.333 148.604,273.082 148.214,272.774 147.907 C 272.467 147.599,272.310 147.194,272.426 147.007 C 272.542 146.820,272.361 146.667,272.024 146.667 C 271.688 146.667,271.325 146.333,271.218 145.926 C 271.112 145.519,270.860 145.185,270.658 145.185 C 270.456 145.185,270.385 144.941,270.500 144.641 C 270.615 144.342,270.523 143.983,270.297 143.844 C 270.048 143.690,269.990 143.758,270.150 144.017 C 270.570 144.696,269.948 144.512,269.404 143.796 C 269.134 143.440,268.907 142.829,268.901 142.438 C 268.894 142.048,268.788 141.829,268.664 141.953 C 268.386 142.231,266.905 140.785,266.568 139.906 C 266.431 139.550,265.971 139.259,265.545 139.259 C 265.119 139.259,264.862 139.111,264.974 138.931 C 265.086 138.750,264.931 138.398,264.630 138.148 C 264.329 137.898,264.189 137.520,264.321 137.308 C 264.453 137.095,264.381 137.032,264.161 137.168 C 263.643 137.488,262.512 136.357,262.832 135.839 C 262.968 135.619,262.905 135.547,262.692 135.679 C 262.323 135.908,261.164 134.871,261.420 134.542 C 261.488 134.454,261.419 134.272,261.268 134.136 C 261.116 134.000,261.112 134.097,261.259 134.352 C 261.405 134.606,261.368 134.815,261.176 134.815 C 260.984 134.815,260.740 134.481,260.633 134.074 C 260.527 133.667,260.174 133.333,259.849 133.333 C 259.525 133.333,259.259 133.157,259.259 132.941 C 259.259 132.725,259.093 132.652,258.889 132.778 C 258.685 132.904,258.519 132.747,258.519 132.429 C 258.519 132.112,258.342 131.852,258.126 131.852 C 257.911 131.852,257.855 131.657,258.002 131.419 C 258.181 131.129,258.069 131.062,257.664 131.218 C 256.985 131.478,255.800 130.504,256.135 129.961 C 256.254 129.769,256.214 129.635,256.046 129.664 C 255.290 129.796,254.791 129.597,255.006 129.250 C 255.135 129.041,255.103 128.894,254.935 128.924 C 254.767 128.953,254.463 128.957,254.259 128.932 C 253.808 128.878,251.630 127.039,251.759 126.822 C 251.810 126.736,251.742 126.682,251.607 126.700 C 251.473 126.718,251.218 126.475,251.042 126.160 C 250.866 125.844,250.486 125.677,250.198 125.787 C 249.907 125.899,249.461 125.645,249.193 125.216 C 248.928 124.792,248.507 124.444,248.257 124.444 C 248.008 124.444,247.015 123.944,246.051 123.333 C 245.088 122.722,244.070 122.222,243.790 122.222 C 243.110 122.222,242.190 121.274,242.518 120.911 C 242.661 120.752,242.585 120.732,242.350 120.866 C 241.806 121.178,237.656 119.135,238.044 118.746 C 238.203 118.587,238.167 118.490,237.963 118.532 C 236.735 118.779,235.491 118.479,235.682 117.982 C 235.820 117.623,235.710 117.513,235.352 117.651 C 235.056 117.764,234.815 117.673,234.815 117.447 C 234.815 117.222,234.690 117.072,234.537 117.115 C 233.871 117.303,231.824 116.641,232.032 116.305 C 232.164 116.090,232.019 116.027,231.686 116.155 C 231.370 116.276,231.111 116.191,231.111 115.966 C 231.111 115.735,230.472 115.556,229.651 115.556 C 228.849 115.556,228.089 115.389,227.963 115.185 C 227.837 114.981,227.401 114.815,226.993 114.815 C 226.586 114.815,226.356 114.648,226.481 114.444 C 226.716 114.065,226.042 113.936,224.495 114.065 C 223.953 114.110,223.714 113.987,223.867 113.740 C 224.018 113.494,223.892 113.426,223.538 113.562 C 223.222 113.684,222.963 113.604,222.963 113.385 C 222.963 113.165,222.699 113.088,222.376 113.211 C 221.573 113.520,217.750 112.567,218.022 112.126 C 218.151 111.917,217.921 111.874,217.457 112.021 C 217.026 112.158,216.497 112.161,216.281 112.028 C 216.066 111.895,214.870 111.759,213.624 111.726 C 212.377 111.693,211.302 111.500,211.235 111.296 C 211.167 111.091,210.284 110.983,209.260 111.054 C 208.194 111.128,207.407 111.026,207.407 110.815 C 207.407 110.292,195.825 110.370,195.469 110.895 C 195.284 111.168,195.195 111.148,195.191 110.833 C 195.187 110.540,194.677 110.384,193.796 110.407 C 192.526 110.441,192.486 110.472,193.333 110.770 " stroke="none" fill="#0564b3" fill-rule="evenodd"></path><path id="path2" d="M111.858 208.241 C 111.861 209.106,112.028 210.065,112.229 210.370 C 112.530 210.828,112.584 210.795,112.535 210.185 C 112.502 209.778,112.502 208.986,112.534 208.426 L 112.593 207.407 198.519 207.407 L 284.444 207.407 284.444 210.370 C 284.444 212.099,284.599 213.333,284.815 213.333 C 285.031 213.333,285.185 212.091,285.185 210.347 L 285.185 207.360 286.389 207.477 L 287.593 207.593 287.466 209.537 C 287.396 210.606,287.480 211.481,287.651 211.481 C 287.823 211.481,287.992 210.480,288.026 209.255 C 288.063 207.976,287.945 207.119,287.749 207.240 C 287.561 207.356,287.407 207.275,287.407 207.059 C 287.407 206.784,261.162 206.667,199.630 206.667 L 111.852 206.667 111.858 208.241 M286.667 212.778 C 286.667 213.287,286.833 213.704,287.037 213.704 C 287.241 213.704,287.407 213.527,287.407 213.311 C 287.407 213.096,287.574 213.022,287.778 213.148 C 287.981 213.274,288.148 213.034,288.148 212.614 C 288.148 212.099,287.908 211.852,287.407 211.852 C 286.864 211.852,286.667 212.099,286.667 212.778 M111.852 213.697 C 111.852 214.126,113.635 214.637,113.968 214.304 C 114.094 214.177,113.836 214.074,113.395 214.074 C 112.954 214.074,112.593 213.907,112.593 213.704 C 112.593 213.500,112.426 213.333,112.222 213.333 C 112.019 213.333,111.852 213.497,111.852 213.697 M128.796 214.352 C 134.551 214.409,143.968 214.409,149.722 214.352 C 155.477 214.294,150.769 214.247,139.259 214.247 C 127.750 214.247,123.042 214.294,128.796 214.352 M204.352 214.352 C 219.069 214.405,243.153 214.405,257.870 214.352 C 272.588 214.298,260.546 214.254,231.111 214.254 C 201.676 214.254,189.634 214.298,204.352 214.352 M174.467 214.745 C 173.554 215.050,174.180 215.555,175.463 215.550 C 177.527 215.541,178.217 214.935,176.364 214.758 C 175.537 214.679,174.684 214.673,174.467 214.745 M115.093 216.194 C 115.755 216.276,116.838 216.276,117.500 216.194 C 118.162 216.112,117.620 216.044,116.296 216.044 C 114.972 216.044,114.431 216.112,115.093 216.194 M172.375 216.574 C 172.519 216.829,172.461 217.037,172.247 217.037 C 172.029 217.037,171.883 217.692,171.915 218.519 C 171.947 219.333,172.132 220.000,172.326 220.000 C 172.520 220.000,172.587 219.647,172.474 219.217 C 172.361 218.786,172.463 218.123,172.699 217.744 C 173.035 217.207,173.018 216.952,172.622 216.583 C 172.231 216.221,172.174 216.218,172.375 216.574 M163.704 220.370 C 163.704 220.981,163.537 221.481,163.333 221.481 C 163.130 221.481,162.963 221.981,162.963 222.593 C 162.963 223.457,163.128 223.704,163.704 223.704 C 164.362 223.704,164.444 223.457,164.444 221.481 C 164.444 220.247,164.280 219.259,164.074 219.259 C 163.870 219.259,163.704 219.759,163.704 220.370 M171.852 223.137 C 171.852 223.837,171.996 223.996,172.468 223.814 C 172.883 223.655,172.997 223.720,172.817 224.011 C 172.669 224.249,172.725 224.444,172.941 224.444 C 173.509 224.444,173.422 223.369,172.804 222.751 C 172.058 222.005,171.852 222.088,171.852 223.137 M161.948 224.281 C 161.628 224.625,161.610 224.851,161.888 225.022 C 162.417 225.349,163.003 224.736,162.670 224.205 C 162.480 223.902,162.280 223.923,161.948 224.281 M115.556 224.815 C 115.556 225.019,116.264 225.183,117.130 225.180 C 118.282 225.175,118.555 225.078,118.148 224.815 C 117.417 224.342,115.556 224.342,115.556 224.815 M284.444 225.719 C 284.444 226.012,284.611 226.356,284.815 226.481 C 285.019 226.607,285.185 226.367,285.185 225.948 C 285.185 225.528,285.019 225.185,284.815 225.185 C 284.611 225.185,284.444 225.425,284.444 225.719 M117.037 228.519 C 117.037 228.722,117.412 228.886,117.870 228.883 C 118.544 228.879,118.597 228.809,118.148 228.519 C 117.430 228.054,117.037 228.054,117.037 228.519 M117.187 231.539 C 117.023 231.804,117.085 231.866,117.350 231.702 C 117.761 231.448,117.933 231.889,117.805 232.870 C 117.772 233.125,117.884 233.333,118.053 233.333 C 118.222 233.333,118.399 232.833,118.446 232.222 C 118.533 231.082,117.736 230.650,117.187 231.539 M278.519 231.481 C 278.519 231.718,275.151 231.854,269.167 231.858 C 262.992 231.861,260.004 231.985,260.370 232.222 C 260.792 232.495,260.636 232.583,259.722 232.587 C 259.060 232.590,258.519 232.759,258.519 232.963 C 258.519 233.201,262.099 233.333,268.519 233.333 C 274.457 233.333,278.519 233.193,278.519 232.988 C 278.519 232.798,278.852 232.537,279.260 232.407 C 279.904 232.203,279.932 232.101,279.472 231.641 C 278.850 231.020,278.519 230.964,278.519 231.481 M134.537 232.406 C 134.282 232.695,134.074 233.022,134.074 233.133 C 134.074 233.243,157.241 233.333,185.556 233.333 C 219.630 233.333,237.037 233.208,237.037 232.963 C 237.037 232.759,236.370 232.593,235.556 232.593 C 234.741 232.593,234.074 232.426,234.074 232.222 C 234.074 231.571,135.112 231.753,134.537 232.406 M282.222 232.182 C 282.222 232.432,282.056 232.533,281.852 232.407 C 281.648 232.282,281.481 232.438,281.481 232.756 C 281.481 233.073,281.630 233.333,281.812 233.333 C 282.207 233.333,282.693 232.199,282.416 231.922 C 282.309 231.816,282.222 231.933,282.222 232.182 M127.730 236.944 C 127.573 237.860,127.589 239.201,127.755 239.035 C 127.983 238.807,128.132 236.667,127.920 236.667 C 127.842 236.667,127.756 236.792,127.730 236.944 M240.995 237.276 C 240.602 237.670,240.695 239.259,241.111 239.259 C 241.315 239.259,241.498 238.884,241.518 238.426 C 241.554 237.623,241.567 237.627,241.869 238.519 C 242.174 239.419,242.180 239.415,242.110 238.362 C 242.038 237.299,241.498 236.773,240.995 237.276 M252.020 237.957 C 252.044 239.166,252.593 239.607,252.593 238.417 C 252.593 237.886,252.460 237.369,252.298 237.269 C 252.136 237.169,252.011 237.479,252.020 237.957 M120.988 238.765 C 120.487 239.266,120.738 240.741,121.323 240.741 C 122.408 240.741,123.105 239.719,122.460 239.074 C 121.861 238.475,121.379 238.374,120.988 238.765 M251.852 241.456 C 251.852 241.650,252.021 241.913,252.228 242.041 C 252.435 242.169,252.495 242.450,252.362 242.666 C 252.225 242.888,252.333 242.988,252.610 242.895 C 253.400 242.632,253.393 242.067,252.594 241.568 C 252.186 241.313,251.852 241.263,251.852 241.456 M127.987 242.183 C 127.874 242.366,128.031 242.611,128.335 242.727 C 128.672 242.856,128.889 242.726,128.889 242.396 C 128.889 241.797,128.310 241.660,127.987 242.183 M123.460 242.897 C 123.113 243.453,123.179 243.658,123.834 244.052 C 124.492 244.448,124.549 244.447,124.167 244.044 C 123.499 243.340,123.596 242.963,124.444 242.963 C 124.852 242.963,125.185 242.796,125.185 242.593 C 125.185 241.960,123.904 242.186,123.460 242.897 M272.593 243.704 C 272.593 244.111,272.759 244.444,272.963 244.444 C 273.167 244.444,273.333 244.111,273.333 243.704 C 273.333 243.296,273.167 242.963,272.963 242.963 C 272.759 242.963,272.593 243.296,272.593 243.704 M275.556 244.074 C 275.556 244.685,275.389 245.185,275.185 245.185 C 274.981 245.185,274.815 245.505,274.815 245.895 C 274.815 246.285,274.606 246.679,274.352 246.770 C 274.097 246.861,274.006 247.062,274.149 247.216 C 274.455 247.545,275.556 246.539,275.556 245.931 C 275.556 245.700,275.751 245.632,275.989 245.780 C 276.277 245.958,276.346 245.848,276.193 245.450 C 276.045 245.065,276.126 244.915,276.421 245.028 C 276.712 245.140,276.909 244.796,276.963 244.083 C 277.032 243.179,276.905 242.963,276.302 242.963 C 275.720 242.963,275.556 243.207,275.556 244.074 M273.204 248.692 C 273.089 248.991,273.180 249.350,273.407 249.490 C 273.656 249.644,273.714 249.575,273.554 249.316 C 273.409 249.081,273.466 248.889,273.682 248.889 C 273.898 248.889,274.074 248.722,274.074 248.519 C 274.074 247.952,273.439 248.078,273.204 248.692 M126.566 249.606 C 126.436 250.102,126.534 250.256,126.894 250.118 C 127.477 249.894,127.567 249.401,127.079 249.100 C 126.899 248.989,126.667 249.216,126.566 249.606 M188.148 249.630 C 188.148 250.206,187.901 250.370,187.037 250.370 C 186.426 250.370,185.926 250.537,185.926 250.741 C 185.926 250.944,186.759 251.111,187.778 251.111 C 189.588 251.111,189.630 251.086,189.630 250.000 C 189.630 249.136,189.465 248.889,188.889 248.889 C 188.395 248.889,188.148 249.136,188.148 249.630 M194.074 249.259 C 194.074 249.463,194.407 249.630,194.815 249.630 C 195.222 249.630,195.556 249.463,195.556 249.259 C 195.556 249.056,195.222 248.889,194.815 248.889 C 194.407 248.889,194.074 249.056,194.074 249.259 M130.370 250.000 C 130.370 250.243,139.506 250.370,157.037 250.370 C 174.568 250.370,183.704 250.243,183.704 250.000 C 183.704 249.757,174.568 249.630,157.037 249.630 C 139.506 249.630,130.370 249.757,130.370 250.000 M213.333 250.004 C 213.333 250.255,223.205 250.347,243.089 250.282 C 272.682 250.186,272.844 250.189,272.669 250.926 C 272.529 251.511,272.591 251.575,272.962 251.229 C 273.220 250.988,273.331 250.529,273.209 250.210 C 272.939 249.506,213.333 249.301,213.333 250.004 M207.407 251.235 C 207.407 252.531,207.761 252.643,208.743 251.661 C 209.886 250.518,209.861 250.370,208.519 250.370 C 207.601 250.370,207.407 250.521,207.407 251.235 M192.267 252.186 C 191.452 252.703,192.154 253.333,193.544 253.333 C 194.728 253.333,194.788 253.280,194.358 252.593 C 193.867 251.805,193.103 251.657,192.267 252.186 M194.233 255.508 C 194.233 255.858,194.530 256.457,194.894 256.840 C 195.536 257.516,195.556 257.499,195.556 256.255 C 195.556 255.289,195.392 254.960,194.894 254.923 C 194.497 254.893,194.233 255.127,194.233 255.508 M193.603 259.974 C 193.465 260.504,193.597 260.675,194.116 260.636 C 194.913 260.576,194.887 260.619,194.590 259.845 C 194.284 259.049,193.830 259.108,193.603 259.974 M262.638 261.075 C 261.979 261.492,262.429 262.222,263.344 262.222 C 263.851 262.222,263.984 262.048,263.814 261.606 C 263.643 261.158,263.712 261.073,264.068 261.293 C 264.395 261.494,264.470 261.453,264.295 261.168 C 263.982 260.663,263.346 260.627,262.638 261.075 M141.173 261.436 C 140.779 261.685,140.803 261.797,141.296 261.985 C 142.157 262.316,142.222 262.294,142.222 261.667 C 142.222 261.043,141.903 260.973,141.173 261.436 M260.741 263.333 C 260.741 263.944,260.877 264.444,261.044 264.444 C 261.210 264.444,261.347 263.944,261.347 263.333 C 261.347 262.722,261.210 262.222,261.044 262.222 C 260.877 262.222,260.741 262.722,260.741 263.333 M139.259 263.731 C 139.259 264.261,139.459 264.460,139.903 264.375 C 140.869 264.189,140.976 262.963,140.027 262.963 C 139.497 262.963,139.259 263.201,139.259 263.731 M141.690 265.148 C 140.979 266.298,142.005 267.804,142.860 266.865 C 143.018 266.691,142.940 266.668,142.685 266.814 C 142.250 267.065,142.074 266.584,142.123 265.278 C 142.143 264.733,141.977 264.683,141.690 265.148 M146.667 267.037 C 146.667 267.241,147.000 267.407,147.407 267.407 C 147.815 267.407,148.148 267.241,148.148 267.037 C 148.148 266.833,147.815 266.667,147.407 266.667 C 147.000 266.667,146.667 266.833,146.667 267.037 M256.394 267.462 C 256.332 268.281,256.870 268.377,257.169 267.599 C 257.289 267.286,257.625 267.144,257.949 267.268 C 258.262 267.388,258.519 267.313,258.519 267.101 C 258.519 266.370,256.450 266.721,256.394 267.462 M143.333 267.332 C 143.333 267.843,145.490 269.630,146.108 269.630 C 146.415 269.630,146.667 269.534,146.667 269.418 C 146.667 268.987,145.550 268.108,145.244 268.297 C 145.070 268.405,144.568 268.159,144.130 267.751 C 143.692 267.342,143.333 267.154,143.333 267.332 M255.253 267.617 C 254.420 268.562,254.824 269.716,255.741 269.007 C 256.224 268.632,256.328 268.376,256.039 268.267 C 255.796 268.175,255.689 267.861,255.801 267.569 C 256.059 266.896,255.876 266.912,255.253 267.617 M222.966 270.000 C 222.967 270.102,223.464 270.468,224.071 270.813 C 225.158 271.432,225.173 271.429,225.103 270.592 C 225.041 269.843,222.960 269.266,222.966 270.000 M165.833 270.278 C 175.662 270.333,191.745 270.333,201.574 270.278 C 211.403 270.223,203.361 270.178,183.704 270.178 C 164.046 270.178,156.005 270.223,165.833 270.278 M241.960 270.275 C 243.343 270.346,245.510 270.346,246.775 270.274 C 248.039 270.202,246.907 270.143,244.259 270.144 C 241.611 270.145,240.576 270.204,241.960 270.275 M224.576 276.967 C 224.598 277.786,224.744 278.377,224.900 278.280 C 225.281 278.045,225.253 276.606,224.856 275.979 C 224.650 275.655,224.551 276.006,224.576 276.967 M231.111 276.296 C 231.111 276.704,231.278 277.037,231.481 277.037 C 231.685 277.037,231.852 277.370,231.852 277.778 C 231.852 278.185,231.685 278.519,231.481 278.519 C 231.278 278.519,231.111 278.685,231.111 278.889 C 231.111 279.093,231.444 279.259,231.852 279.259 C 232.259 279.259,232.593 279.093,232.593 278.889 C 232.593 278.685,232.926 278.519,233.333 278.519 C 233.741 278.519,234.074 278.352,234.074 278.148 C 234.074 277.944,233.907 277.778,233.704 277.778 C 233.500 277.778,233.333 277.516,233.333 277.196 C 233.333 276.876,233.095 276.376,232.804 276.085 C 232.033 275.314,231.111 275.429,231.111 276.296 M169.537 280.474 C 170.810 280.677,171.852 280.988,171.852 281.163 C 171.852 281.338,173.185 281.481,174.815 281.481 C 176.543 281.481,177.778 281.327,177.778 281.111 C 177.778 280.895,179.012 280.741,180.741 280.741 C 182.569 280.741,183.704 280.890,183.704 281.131 C 183.704 281.612,221.145 281.552,221.906 281.070 C 222.228 280.866,222.253 280.750,221.975 280.746 C 221.737 280.743,221.237 280.642,220.864 280.521 C 220.446 280.385,220.350 280.421,220.613 280.613 C 220.849 280.785,212.682 280.879,202.465 280.821 C 190.930 280.756,183.842 280.581,183.765 280.358 C 183.600 279.878,177.778 279.890,177.778 280.370 C 177.778 280.586,176.543 280.741,174.815 280.741 C 173.086 280.741,171.852 280.586,171.852 280.370 C 171.852 280.157,170.868 280.022,169.537 280.052 L 167.222 280.103 169.537 280.474 M223.704 280.370 C 223.704 280.574,224.037 280.741,224.444 280.741 C 224.852 280.741,225.185 280.574,225.185 280.370 C 225.185 280.167,224.852 280.000,224.444 280.000 C 224.037 280.000,223.704 280.167,223.704 280.370 M234.074 280.370 C 234.074 280.574,233.741 280.741,233.333 280.741 C 232.926 280.741,232.593 280.907,232.593 281.111 C 232.593 281.315,232.218 281.481,231.759 281.481 C 231.130 281.481,230.926 281.696,230.926 282.357 C 230.926 283.127,231.025 283.188,231.748 282.859 C 232.200 282.653,232.466 282.316,232.339 282.111 C 232.212 281.905,232.288 281.849,232.508 281.985 C 233.142 282.377,234.815 281.432,234.815 280.681 C 234.815 280.307,234.648 280.000,234.444 280.000 C 234.241 280.000,234.074 280.167,234.074 280.370 M163.704 281.111 C 163.704 281.315,164.204 281.481,164.815 281.481 C 165.426 281.481,165.926 281.315,165.926 281.111 C 165.926 280.907,165.426 280.741,164.815 280.741 C 164.204 280.741,163.704 280.907,163.704 281.111 M167.778 282.620 C 166.924 282.919,166.944 282.936,168.033 282.836 C 168.721 282.773,169.185 282.893,169.144 283.123 C 169.105 283.344,169.672 283.519,170.431 283.519 C 171.482 283.519,171.701 283.413,171.401 283.051 C 171.109 282.699,170.887 282.688,170.506 283.004 C 170.113 283.330,170.000 283.289,170.000 282.823 C 170.000 282.172,169.253 282.104,167.778 282.620 M177.778 282.963 C 177.778 283.642,178.025 283.704,180.741 283.704 C 183.457 283.704,183.704 283.642,183.704 282.963 C 183.704 282.284,183.457 282.222,180.741 282.222 C 178.025 282.222,177.778 282.284,177.778 282.963 M222.222 284.074 C 222.222 284.278,222.514 284.456,222.870 284.470 C 223.420 284.493,223.406 284.541,222.778 284.790 C 222.370 284.951,221.787 285.007,221.481 284.914 C 221.021 284.774,221.014 284.808,221.441 285.112 C 221.785 285.357,222.451 285.335,223.450 285.046 C 225.513 284.448,225.671 283.704,223.735 283.704 C 222.903 283.704,222.222 283.870,222.222 284.074 M176.140 284.861 C 176.250 285.039,176.664 285.185,177.059 285.185 C 177.454 285.185,177.778 285.430,177.778 285.729 C 177.778 286.043,177.997 286.189,178.296 286.074 C 178.581 285.965,178.924 286.053,179.058 286.271 C 179.193 286.489,179.835 286.642,180.485 286.611 L 181.667 286.556 180.556 286.382 C 179.592 286.232,179.543 286.172,180.185 285.934 C 180.774 285.715,180.604 285.604,179.352 285.389 C 178.486 285.241,177.778 284.989,177.778 284.829 C 177.778 284.668,177.364 284.537,176.859 284.537 C 176.353 284.537,176.030 284.683,176.140 284.861 M186.667 284.815 C 186.667 285.037,188.148 285.185,190.370 285.185 C 192.593 285.185,194.074 285.037,194.074 284.815 C 194.074 284.593,192.593 284.444,190.370 284.444 C 188.148 284.444,186.667 284.593,186.667 284.815 M210.370 284.815 C 210.370 285.026,211.481 285.185,212.963 285.185 C 214.444 285.185,215.556 285.026,215.556 284.815 C 215.556 284.603,214.444 284.444,212.963 284.444 C 211.481 284.444,210.370 284.603,210.370 284.815 M195.556 285.556 C 195.556 285.782,197.284 285.926,200.000 285.926 C 202.716 285.926,204.444 286.070,204.444 286.296 C 204.444 286.500,205.111 286.667,205.926 286.667 C 207.160 286.667,207.407 286.543,207.407 285.926 C 207.407 285.216,207.160 285.185,201.481 285.185 C 197.778 285.185,195.556 285.324,195.556 285.556 M218.889 286.279 C 219.194 286.486,219.764 286.658,220.154 286.661 C 221.102 286.669,220.806 286.457,219.444 286.152 C 218.633 285.970,218.483 286.005,218.889 286.279 M182.222 287.037 C 182.222 287.241,182.556 287.407,182.963 287.407 C 183.370 287.407,183.704 287.241,183.704 287.037 C 183.704 286.833,183.370 286.667,182.963 286.667 C 182.556 286.667,182.222 286.833,182.222 287.037 M212.975 287.307 C 212.490 287.853,212.503 287.891,213.098 287.663 C 213.464 287.522,214.167 287.407,214.660 287.407 C 215.153 287.407,215.556 287.241,215.556 287.037 C 215.556 286.434,213.565 286.643,212.975 287.307 M217.037 287.037 C 217.037 287.241,217.287 287.407,217.593 287.407 C 217.898 287.407,218.148 287.241,218.148 287.037 C 218.148 286.833,217.898 286.667,217.593 286.667 C 217.287 286.667,217.037 286.833,217.037 287.037 M190.741 287.799 C 191.250 287.951,192.542 288.091,193.611 288.111 C 194.681 288.132,195.556 288.315,195.556 288.519 C 195.556 288.752,197.780 288.873,201.574 288.846 C 205.995 288.815,207.199 288.717,206.111 288.478 C 205.296 288.299,202.588 288.151,200.093 288.150 C 197.306 288.149,195.556 288.005,195.556 287.777 C 195.556 287.555,194.398 287.429,192.685 287.465 C 190.770 287.504,190.123 287.616,190.741 287.799 M207.408 287.870 C 207.407 288.233,208.507 288.182,209.444 287.774 C 210.016 287.526,209.868 287.468,208.797 287.522 C 208.034 287.561,207.409 287.718,207.408 287.870 " stroke="none" fill="#071c6c" fill-rule="evenodd"></path><path id="path3" d="M198.622 110.273 C 199.596 110.349,201.096 110.348,201.956 110.271 C 202.815 110.193,202.019 110.130,200.185 110.131 C 198.352 110.133,197.649 110.196,198.622 110.273 M136.296 136.481 C 134.779 138.009,133.620 139.259,133.722 139.259 C 133.824 139.259,135.149 138.009,136.667 136.481 C 138.184 134.954,139.343 133.704,139.241 133.704 C 139.139 133.704,137.814 134.954,136.296 136.481 M159.010 234.722 C 173.438 234.776,196.938 234.776,211.233 234.722 C 225.527 234.668,213.722 234.625,185.000 234.625 C 156.278 234.625,144.582 234.669,159.010 234.722 M263.587 234.722 C 267.088 234.782,272.921 234.782,276.550 234.722 C 280.179 234.661,277.315 234.611,270.185 234.611 C 263.056 234.611,260.086 234.661,263.587 234.722 M147.870 260.648 C 155.560 260.704,168.144 260.704,175.833 260.648 C 183.523 260.592,177.231 260.546,161.852 260.546 C 146.472 260.546,140.181 260.592,147.870 260.648 M224.139 260.648 C 231.814 260.704,244.481 260.704,252.287 260.648 C 260.094 260.592,253.815 260.546,238.333 260.546 C 222.852 260.546,216.465 260.592,224.139 260.648 " stroke="none" fill="#8a9db5" fill-rule="evenodd"></path><path id="path4" d="M191.204 111.006 C 191.764 111.091,192.681 111.091,193.241 111.006 C 193.801 110.921,193.343 110.852,192.222 110.852 C 191.102 110.852,190.644 110.921,191.204 111.006 M208.246 111.007 C 208.809 111.092,209.642 111.089,210.098 111.001 C 210.553 110.914,210.093 110.844,209.074 110.847 C 208.056 110.849,207.683 110.921,208.246 111.007 M185.926 111.481 C 184.399 111.719,184.368 111.743,185.556 111.775 C 186.269 111.794,187.519 111.671,188.333 111.503 C 190.246 111.107,188.437 111.091,185.926 111.481 M211.667 111.474 C 212.367 111.782,215.853 112.003,215.525 111.718 C 215.440 111.645,214.370 111.486,213.148 111.367 C 211.737 111.228,211.196 111.267,211.667 111.474 M179.815 112.612 C 179.204 112.784,178.204 113.038,177.593 113.175 C 176.981 113.312,176.648 113.485,176.852 113.558 C 177.056 113.631,178.472 113.374,180.000 112.986 C 181.528 112.599,182.361 112.285,181.852 112.290 C 181.343 112.294,180.426 112.439,179.815 112.612 M219.259 112.797 C 220.176 113.086,221.343 113.313,221.852 113.303 C 222.435 113.291,222.092 113.093,220.926 112.769 C 218.499 112.095,217.106 112.118,219.259 112.797 M223.333 113.687 C 223.639 113.894,224.208 114.065,224.599 114.068 C 225.546 114.076,225.251 113.864,223.889 113.559 C 223.077 113.378,222.928 113.412,223.333 113.687 M173.519 114.270 L 172.037 114.758 173.426 114.786 C 174.190 114.802,174.815 114.660,174.815 114.470 C 174.815 114.281,175.190 114.053,175.648 113.965 C 176.336 113.833,176.352 113.803,175.741 113.793 C 175.333 113.787,174.333 114.001,173.519 114.270 M226.852 114.709 C 227.259 114.807,227.751 115.037,227.944 115.221 C 228.138 115.405,228.721 115.548,229.241 115.539 C 230.020 115.526,229.926 115.430,228.704 114.989 C 227.889 114.696,226.972 114.472,226.667 114.493 C 226.360 114.514,226.443 114.610,226.852 114.709 M231.601 116.312 C 232.385 116.802,234.444 117.435,234.444 117.187 C 234.444 117.001,233.281 116.532,231.852 116.143 C 231.053 115.925,231.019 115.949,231.601 116.312 M164.738 117.565 C 164.187 117.852,163.437 118.165,163.071 118.260 C 162.539 118.398,162.568 118.441,163.219 118.476 C 163.665 118.499,164.133 118.352,164.259 118.148 C 164.385 117.944,164.812 117.778,165.207 117.778 C 165.602 117.778,165.926 117.611,165.926 117.407 C 165.926 116.940,165.938 116.939,164.738 117.565 M235.317 117.963 C 235.623 118.269,236.099 118.519,236.376 118.519 C 237.029 118.519,242.740 121.478,242.901 121.900 C 242.969 122.077,243.312 122.222,243.662 122.222 C 244.013 122.222,245.101 122.731,246.081 123.352 C 247.061 123.974,247.936 124.410,248.025 124.321 C 248.355 123.990,235.979 117.407,235.026 117.407 C 234.881 117.407,235.012 117.657,235.317 117.963 M159.074 120.203 C 157.852 120.892,156.282 121.744,155.586 122.096 C 154.881 122.452,154.531 122.806,154.795 122.895 C 155.057 122.982,155.377 122.908,155.506 122.730 C 155.828 122.287,157.308 121.481,157.799 121.481 C 158.020 121.481,158.453 121.230,158.760 120.923 C 159.067 120.615,159.498 120.474,159.717 120.609 C 159.952 120.755,160.007 120.681,159.850 120.428 C 159.682 120.155,159.873 120.000,160.375 120.000 C 160.809 120.000,161.414 119.750,161.720 119.444 C 162.664 118.500,161.504 118.833,159.074 120.203 M152.778 123.704 C 151.537 124.525,151.698 124.667,153.131 124.015 C 153.650 123.778,154.074 123.445,154.074 123.274 C 154.074 122.854,154.048 122.863,152.778 123.704 M149.815 125.773 L 148.704 126.728 149.907 125.931 C 150.569 125.493,151.111 125.063,151.111 124.975 C 151.111 124.698,150.954 124.794,149.815 125.773 M252.288 127.512 C 252.558 127.774,253.361 128.383,254.074 128.867 C 254.787 129.350,255.762 130.148,256.241 130.638 C 256.720 131.129,257.198 131.444,257.304 131.338 C 257.547 131.095,256.994 130.575,254.410 128.611 C 252.442 127.115,251.237 126.491,252.288 127.512 M144.630 129.456 C 144.019 129.957,143.661 130.368,143.835 130.369 C 144.010 130.370,144.648 129.954,145.253 129.444 C 145.858 128.935,146.215 128.525,146.047 128.532 C 145.879 128.539,145.241 128.955,144.630 129.456 M141.481 132.037 C 141.106 132.489,141.125 132.593,141.582 132.593 C 141.890 132.593,142.239 132.343,142.356 132.037 C 142.473 131.731,142.428 131.481,142.256 131.481 C 142.084 131.481,141.735 131.731,141.481 132.037 M258.056 131.727 C 258.310 131.830,258.519 132.160,258.519 132.460 C 258.519 132.761,258.685 132.904,258.889 132.778 C 259.093 132.652,259.259 132.725,259.259 132.941 C 259.259 133.157,259.455 133.333,259.694 133.333 C 259.933 133.333,259.738 132.917,259.259 132.407 C 258.781 131.898,258.210 131.495,257.991 131.511 C 257.772 131.527,257.801 131.624,258.056 131.727 M138.668 134.621 C 137.669 135.534,136.977 136.284,137.131 136.288 C 137.285 136.293,138.201 135.547,139.168 134.632 C 141.452 132.469,141.034 132.460,138.668 134.621 M210.128 134.011 C 210.762 134.712,210.990 137.407,210.415 137.407 C 209.987 137.407,209.091 139.585,209.395 139.888 C 209.524 140.018,209.633 139.887,209.638 139.599 C 209.642 139.310,209.972 138.657,210.370 138.148 C 211.501 136.703,211.108 133.333,209.809 133.333 C 209.647 133.333,209.791 133.638,210.128 134.011 M260.741 134.101 C 260.741 134.271,261.733 135.363,262.947 136.526 C 264.160 137.690,265.067 138.781,264.962 138.950 C 264.857 139.120,265.120 139.259,265.546 139.259 C 266.226 139.259,266.152 139.088,264.946 137.870 C 262.244 135.142,260.741 133.795,260.741 134.101 M204.167 136.133 C 203.912 136.409,203.704 136.846,203.704 137.104 C 203.704 137.361,203.971 137.191,204.297 136.725 C 204.965 135.771,204.875 135.364,204.167 136.133 M134.768 138.433 C 132.777 140.556,132.647 141.163,134.617 139.136 C 135.574 138.151,136.292 137.279,136.211 137.199 C 136.130 137.118,135.481 137.674,134.768 138.433 M189.632 137.526 C 189.631 137.897,189.881 138.453,190.189 138.760 C 190.496 139.067,190.637 139.498,190.502 139.717 C 190.356 139.952,190.430 140.007,190.684 139.850 C 190.937 139.694,191.111 139.821,191.111 140.163 C 191.111 140.481,191.297 140.741,191.524 140.741 C 191.766 140.741,191.660 140.319,191.269 139.722 C 190.902 139.162,190.384 138.287,190.118 137.778 C 189.741 137.056,189.634 137.001,189.632 137.526 M202.056 139.837 C 201.714 140.359,201.491 140.956,201.561 141.163 C 201.630 141.371,201.971 140.944,202.319 140.215 C 203.059 138.663,202.939 138.491,202.056 139.837 M208.227 140.753 C 207.980 141.148,207.779 141.682,207.780 141.939 C 207.781 142.197,208.034 141.924,208.342 141.334 C 208.984 140.103,208.899 139.676,208.227 140.753 M266.667 140.137 C 266.667 140.284,267.083 140.821,267.593 141.330 C 268.102 141.839,268.519 142.111,268.519 141.933 C 268.519 141.756,268.102 141.219,267.593 140.741 C 267.083 140.262,266.667 139.991,266.667 140.137 M191.852 141.374 C 191.852 141.613,192.019 141.911,192.222 142.037 C 192.426 142.163,192.593 142.518,192.593 142.826 C 192.593 143.134,192.843 143.636,193.148 143.942 C 194.033 144.826,193.803 143.811,192.778 142.302 C 192.269 141.552,191.852 141.135,191.852 141.374 M268.902 142.815 C 268.895 143.040,269.358 143.714,269.932 144.315 C 270.505 144.915,271.083 145.689,271.216 146.036 C 271.349 146.383,271.641 146.667,271.865 146.667 C 272.274 146.667,271.584 145.591,269.847 143.519 C 269.335 142.907,268.910 142.591,268.902 142.815 M129.326 144.804 C 128.201 146.325,128.315 146.595,129.491 145.198 C 130.025 144.563,130.388 143.969,130.298 143.878 C 130.207 143.787,129.769 144.204,129.326 144.804 M272.459 147.593 C 272.576 147.898,272.821 148.148,273.003 148.148 C 273.184 148.148,273.333 148.322,273.333 148.534 C 273.333 148.746,273.697 149.288,274.142 149.738 L 274.950 150.556 274.384 149.630 C 274.072 149.120,273.585 148.329,273.301 147.870 C 272.721 146.934,272.131 146.739,272.459 147.593 M196.019 149.893 C 195.373 151.282,195.440 151.811,196.137 150.816 C 196.457 150.360,196.665 149.741,196.600 149.442 C 196.524 149.092,196.316 149.253,196.019 149.893 M203.344 149.259 C 203.347 149.565,203.694 150.231,204.114 150.741 C 204.535 151.250,204.771 151.458,204.639 151.203 C 203.536 149.068,203.339 148.772,203.344 149.259 M275.564 151.677 C 275.568 151.875,275.898 152.454,276.296 152.963 C 276.695 153.472,277.024 154.075,277.029 154.302 C 277.033 154.529,277.345 155.112,277.721 155.598 C 278.098 156.084,278.517 156.940,278.654 157.500 C 278.791 158.060,279.066 158.519,279.266 158.519 C 279.771 158.519,279.733 158.353,278.889 156.863 C 278.481 156.144,277.795 154.931,277.363 154.167 C 276.280 152.253,275.554 151.248,275.564 151.677 M194.630 152.222 C 194.756 152.426,194.672 152.593,194.444 152.593 C 194.217 152.593,194.125 152.746,194.241 152.933 C 194.357 153.120,194.200 153.525,193.892 153.833 C 193.585 154.140,193.339 154.612,193.345 154.881 C 193.357 155.375,195.180 152.646,195.183 152.130 C 195.184 151.977,195.009 151.852,194.793 151.852 C 194.577 151.852,194.504 152.019,194.630 152.222 M121.921 155.704 C 121.068 157.203,120.370 158.651,120.370 158.922 C 120.370 159.193,120.972 158.255,121.708 156.837 C 122.443 155.419,123.217 154.047,123.427 153.787 C 123.637 153.528,123.733 153.240,123.641 153.147 C 123.548 153.054,122.774 154.205,121.921 155.704 M206.534 155.174 C 206.891 155.779,207.232 156.225,207.291 156.165 C 207.489 155.968,206.487 154.080,206.183 154.077 C 206.018 154.075,206.176 154.569,206.534 155.174 M208.216 157.965 C 208.449 158.475,208.710 158.821,208.798 158.733 C 209.059 158.472,208.496 157.037,208.131 157.037 C 207.946 157.037,207.984 157.454,208.216 157.965 M119.300 160.782 C 119.030 161.394,118.887 161.973,118.984 162.070 C 119.080 162.167,119.371 161.735,119.630 161.111 C 120.243 159.631,119.943 159.331,119.300 160.782 M117.914 163.573 C 117.684 164.154,117.223 165.255,116.891 166.019 C 116.548 166.806,116.449 167.407,116.662 167.407 C 116.868 167.407,117.038 167.116,117.038 166.759 C 117.039 166.403,117.381 165.551,117.798 164.867 C 118.216 164.182,118.507 163.373,118.445 163.069 C 118.378 162.735,118.167 162.935,117.914 163.573 M282.982 166.734 C 283.351 168.019,284.074 168.992,284.074 168.204 C 284.074 167.700,283.037 165.556,282.794 165.556 C 282.712 165.556,282.796 166.086,282.982 166.734 M184.167 170.207 C 183.912 170.483,183.704 170.967,183.704 171.281 C 183.704 171.595,183.537 171.852,183.333 171.852 C 183.130 171.852,182.963 172.070,182.963 172.338 C 182.963 172.605,182.671 173.153,182.315 173.556 C 181.958 173.959,181.612 174.530,181.544 174.826 C 181.477 175.121,181.310 175.448,181.174 175.552 C 181.038 175.656,180.710 176.157,180.446 176.667 C 180.033 177.464,180.097 177.438,180.906 176.481 C 181.423 175.870,182.057 174.954,182.314 174.444 C 182.572 173.935,183.260 172.719,183.844 171.743 C 184.898 169.977,185.052 169.246,184.167 170.207 M284.472 170.617 C 284.457 171.262,284.602 171.846,284.794 171.914 C 284.986 171.981,285.352 172.870,285.607 173.889 C 286.158 176.086,286.754 177.027,286.281 174.952 C 285.592 171.932,284.501 169.319,284.472 170.617 M113.477 176.019 C 113.251 176.986,113.206 177.778,113.378 177.778 C 113.793 177.778,114.166 176.219,114.012 175.130 C 113.923 174.501,113.775 174.747,113.477 176.019 M287.407 180.719 C 287.407 181.318,287.539 181.890,287.700 181.989 C 287.862 182.089,287.927 181.599,287.845 180.900 C 287.663 179.343,287.407 179.238,287.407 180.719 M177.657 181.306 C 177.520 181.708,177.306 182.287,177.184 182.593 C 177.061 182.898,177.240 182.769,177.582 182.305 C 177.924 181.842,178.137 181.263,178.056 181.019 C 177.972 180.769,177.798 180.895,177.657 181.306 M222.009 181.111 C 222.126 181.417,222.325 181.958,222.450 182.315 C 222.576 182.671,222.832 182.963,223.019 182.963 C 223.355 182.963,223.032 182.228,222.206 181.111 C 221.841 180.617,221.819 180.617,222.009 181.111 M288.148 184.546 C 288.148 185.485,288.313 186.354,288.514 186.479 C 288.747 186.623,288.796 186.060,288.647 184.927 C 288.340 182.584,288.148 182.437,288.148 184.546 M224.087 184.651 C 224.111 185.273,225.159 186.879,225.160 186.296 C 225.161 185.991,224.917 185.417,224.618 185.022 C 224.319 184.626,224.080 184.460,224.087 184.651 M174.536 186.658 C 173.900 187.676,173.957 187.947,174.659 187.245 C 174.981 186.923,175.189 186.493,175.121 186.289 C 175.053 186.085,174.790 186.251,174.536 186.658 M225.556 187.266 C 225.556 187.470,225.800 187.960,226.099 188.355 C 226.398 188.751,226.643 188.907,226.643 188.704 C 226.643 188.500,226.398 188.010,226.099 187.614 C 225.800 187.219,225.556 187.062,225.556 187.266 M289.004 189.815 C 289.006 191.037,289.075 191.492,289.157 190.827 C 289.240 190.161,289.238 189.161,289.154 188.604 C 289.069 188.048,289.002 188.593,289.004 189.815 M172.282 190.571 C 171.662 191.933,171.780 192.224,172.451 190.986 C 172.765 190.408,172.952 189.865,172.867 189.781 C 172.782 189.696,172.519 190.052,172.282 190.571 M110.842 191.481 C 110.842 192.398,110.914 192.773,111.002 192.315 C 111.090 191.856,111.090 191.106,111.002 190.648 C 110.914 190.190,110.842 190.565,110.842 191.481 M286.667 193.704 C 286.667 193.907,287.000 194.074,287.407 194.074 C 287.815 194.074,288.148 193.907,288.148 193.704 C 288.148 193.500,287.815 193.333,287.407 193.333 C 287.000 193.333,286.667 193.500,286.667 193.704 M142.593 205.831 C 229.110 206.083,289.913 206.084,289.758 205.833 C 289.663 205.681,249.221 205.596,199.886 205.646 C 150.550 205.696,124.769 205.779,142.593 205.831 M158.981 242.500 C 173.190 242.554,196.440 242.554,210.648 242.500 C 224.856 242.446,213.231 242.402,184.815 242.402 C 156.398 242.402,144.773 242.446,158.981 242.500 M262.870 242.499 C 265.773 242.562,270.523 242.562,273.426 242.499 C 276.329 242.437,273.954 242.385,268.148 242.385 C 262.343 242.385,259.968 242.437,262.870 242.499 M126.990 252.315 C 127.468 252.924,129.369 252.958,158.842 252.873 L 190.185 252.782 158.924 252.685 C 134.677 252.610,127.531 252.485,127.072 252.128 C 126.549 251.720,126.540 251.741,126.990 252.315 M226.046 252.870 C 234.770 252.926,248.937 252.926,257.528 252.870 C 266.119 252.815,258.981 252.770,241.667 252.770 C 224.352 252.770,217.323 252.815,226.046 252.870 M262.764 264.167 L 260.926 266.111 262.870 264.273 C 263.940 263.262,264.815 262.387,264.815 262.329 C 264.815 262.052,264.472 262.360,262.764 264.167 " stroke="none" fill="#375076" fill-rule="evenodd"></path></g></svg>